<svg xmlns="http://www.w3.org/2000/svg" width="31" height="23" viewBox="0 0 31 23">
  <g fill="none" fill-rule="evenodd">
    <path class="menuicon" fill="#D8D8D8" d="M14.8387358 5.89475636C20.0309419 5.89475636 22.1760591 5.89475636 26.9074792 5.89475636 27.5213454 5.89475636 27.8153255 5.76790895 28.0959147 5.67011517 28.7192268 5.45287218 29 4.19361617 29 4 29 3.81068661 28.8899693 2.58119126 28.2447668 2.2680368 28.042188 2.16971348 27.5581757 2 27.0656027 2 22.7528121 2 20.0327434 2 14.8387358 2 9.62856683 2 5.57719993 2 2.38875472 2 1.73862491 2 1.38660469 2.49150522 1.33195227 2.58119126 1.10310414 2.95673699 1 3.7307311 1 3.91907084 1 4.1087899 1.07493346 5.00365107 1.33195227 5.33216121 1.6287496 5.7115145 1.97825726 5.85570397 2.38875472 5.89475636 4.87784829 6.13155455 9.63516813 5.89475636 14.8387358 5.89475636zM14.8387358 13.3947564C20.0309419 13.3947564 22.1760591 13.3947564 26.9074792 13.3947564 27.5213454 13.3947564 27.8153255 13.2679089 28.0959147 13.1701152 28.7192268 12.9528722 29 11.6936162 29 11.5 29 11.3106866 28.8899693 10.0811913 28.2447668 9.7680368 28.042188 9.66971348 27.5581757 9.5 27.0656027 9.5 22.7528121 9.5 20.0327434 9.5 14.8387358 9.5 9.62856683 9.5 5.57719993 9.5 2.38875472 9.5 1.73862491 9.5 1.38660469 9.99150522 1.33195227 10.0811913 1.10310414 10.456737 1 11.2307311 1 11.4190708 1 11.6087899 1.07493346 12.5036511 1.33195227 12.8321612 1.6287496 13.2115145 1.97825726 13.355704 2.38875472 13.3947564 4.87784829 13.6315546 9.63516813 13.3947564 14.8387358 13.3947564zM14.8387358 20.8947564C20.0309419 20.8947564 22.1760591 20.8947564 26.9074792 20.8947564 27.5213454 20.8947564 27.8153255 20.7679089 28.0959147 20.6701152 28.7192268 20.4528722 29 19.1936162 29 19 29 18.8106866 28.8899693 17.5811913 28.2447668 17.2680368 28.042188 17.1697135 27.5581757 17 27.0656027 17 22.7528121 17 20.0327434 17 14.8387358 17 9.62856683 17 5.57719993 17 2.38875472 17 1.73862491 17 1.38660469 17.4915052 1.33195227 17.5811913 1.10310414 17.956737 1 18.7307311 1 18.9190708 1 19.1087899 1.07493346 20.0036511 1.33195227 20.3321612 1.6287496 20.7115145 1.97825726 20.855704 2.38875472 20.8947564 4.87784829 21.1315546 9.63516813 20.8947564 14.8387358 20.8947564z"/>
  </g>
</svg>
